<svg width="14" height="14" viewBox="0 0 14 14" fill="none" xmlns="http://www.w3.org/2000/svg">
<path fill-rule="evenodd" clip-rule="evenodd" d="M0.931295 10.9208L0.952871 10.8926L6.06253 5.76003C5.88275 5.33185 5.77236 4.87374 5.73913 4.40288C5.66718 3.38353 5.706 2.62879 6.3133 1.80892C6.92059 0.989055 7.80049 0.415167 8.79318 0.191497C9.27712 0.082456 9.8531 0.0330935 10.4172 0.0672947C10.9758 0.101165 11.5651 0.219537 12.0501 0.479282L12.6959 0.825126L9.36494 4.17102C9.36386 4.17438 9.36265 4.17846 9.36136 4.18334C9.35193 4.21904 9.34498 4.27427 9.34852 4.34102C9.35634 4.48855 9.40673 4.58624 9.44045 4.6201C9.50358 4.68351 9.61663 4.74016 9.73659 4.75453C9.84832 4.76791 9.88807 4.73915 9.88807 4.73915L13.2384 1.37387L13.5803 2.03113C13.8335 2.51786 13.9529 3.11373 13.9883 3.67983C14.024 4.25104 13.9769 4.83686 13.8632 5.32677C13.6323 6.32201 13.0537 7.20104 12.2325 7.80422C11.4112 8.4074 10.6574 8.43798 9.64327 8.35723C9.19486 8.32154 8.75866 8.21493 8.34963 8.04439L3.25856 13.1582C3.25024 13.1666 3.24166 13.1752 3.23282 13.1842C3.03124 13.3872 2.69371 13.7271 2.2727 13.8826C2.0336 13.971 1.75735 14.0057 1.4611 13.9303C1.1697 13.8562 0.903016 13.6868 0.658605 13.4413C0.391827 13.1733 0.247716 12.8647 0.218264 12.5401C0.189917 12.2276 0.2718 11.9469 0.372995 11.7261C0.474339 11.505 0.607228 11.3174 0.715354 11.1798C0.770222 11.11 0.821524 11.0497 0.861134 11.0035C0.8677 10.9958 0.873672 10.9889 0.8792 10.9825C0.891304 10.9684 0.90128 10.9568 0.910702 10.9457C0.917136 10.9381 0.922033 10.9322 0.925794 10.9276L0.929973 10.9225C0.930629 10.9216 0.931295 10.9208 0.931295 10.9208ZM7.37921 7.47877C7.23256 7.36488 7.0928 7.24094 6.961 7.10745C6.8429 6.98783 6.73248 6.86184 6.63011 6.73028L1.76765 11.6145C1.73409 11.6567 1.699 11.6977 1.66349 11.7392C1.55491 11.866 1.44245 11.9973 1.35799 12.1816C1.30686 12.2932 1.29244 12.3783 1.29814 12.4412C1.30274 12.4919 1.32304 12.5683 1.42536 12.6711C1.56882 12.8152 1.67059 12.86 1.72735 12.8745C1.77926 12.8877 1.83088 12.8853 1.89848 12.8604C2.0724 12.7961 2.25262 12.6283 2.49181 12.3881L7.37921 7.47877ZM7.18326 2.45911C6.73089 3.06983 6.76717 3.56653 6.82077 4.32584C6.85285 4.78036 6.98143 5.21892 7.19396 5.61373C7.33648 5.87847 7.51672 6.1235 7.73094 6.34047C7.95616 6.56859 8.21258 6.75926 8.49057 6.90799C8.87127 7.11167 9.29233 7.23667 9.72895 7.27143C10.4844 7.33158 10.9807 7.37429 11.5924 6.92498C12.2042 6.47568 12.6352 5.82089 12.8072 5.07954C12.895 4.70115 12.9357 4.22216 12.9061 3.74809C12.8963 3.59232 12.8793 3.44176 12.8553 3.29906L10.6532 5.51098C10.3503 5.81529 9.9366 5.87541 9.6082 5.83607C9.27426 5.79608 8.92746 5.64519 8.6737 5.39029C8.39052 5.10585 8.28247 4.71513 8.2657 4.39896C8.25694 4.23386 8.27116 4.06341 8.31328 3.90396C8.3537 3.75099 8.43023 3.56954 8.57533 3.42379L10.7862 1.20303C10.6482 1.17991 10.5027 1.16367 10.3518 1.15452C9.88665 1.12632 9.41265 1.16819 9.03052 1.25429C8.29107 1.4209 7.63563 1.84839 7.18326 2.45911Z" fill="#9E1B32"/>
<path fill-rule="evenodd" clip-rule="evenodd" d="M9.50648 9.00669C10.0005 8.51044 10.8015 8.51044 11.2956 9.00669L13.5958 11.3173C14.0899 11.8135 14.0899 12.6181 13.5958 13.1144L13.0847 13.6278C12.5906 14.1241 11.7896 14.1241 11.2956 13.6278L8.99531 11.3173C8.50127 10.821 8.50127 10.0164 8.99531 9.52015L9.50648 9.00669ZM10.5288 9.77688C10.4582 9.70599 10.3438 9.70599 10.2732 9.77688L9.76206 10.2903C9.69148 10.3612 9.69148 10.4762 9.76206 10.5471L12.0623 12.8576C12.1329 12.9285 12.2473 12.9285 12.3179 12.8576L12.8291 12.3442C12.8997 12.2733 12.8997 12.1583 12.8291 12.0874L10.5288 9.77688Z" fill="#9E1B32"/>
<path d="M0.1588 0.159511C0.370533 -0.0531702 0.71382 -0.0531702 0.925553 0.159511L5.0149 4.26717C5.22664 4.47985 5.22664 4.82467 5.0149 5.03735C4.80317 5.25004 4.45988 5.25004 4.24815 5.03735L0.1588 0.929697C-0.0529333 0.717016 -0.0529333 0.372192 0.1588 0.159511Z" fill="#9E1B32"/>
</svg>
