<svg width="12" height="14" viewBox="0 0 12 14" fill="none" xmlns="http://www.w3.org/2000/svg">
<path d="M4.78591 4.88486C5.15745 4.84872 5.76309 4.52249 5.78922 4.3056C5.83541 3.92221 5.92983 1.45977 5.75466 0.847437C5.64965 0.585824 5.24506 0.428193 4.79478 0.420619L4.78591 4.88486Z" fill="#9E1B32"/>
<path d="M7.3928 8.95934C7.50732 8.60404 7.95517 8.08188 8.17264 8.10259C8.55707 8.1392 10.983 8.57193 11.5439 8.87361C11.7771 9.03198 11.8449 9.46088 11.7563 9.90243L7.3928 8.95934Z" fill="#9E1B32"/>
<path d="M3.16602 0.379973L3.16211 0.380536C2.74178 0.441075 0.740771 0.729278 0.465046 2.65284C-0.120304 6.73646 1.19452 12.7509 8.65232 13.6567C10.5836 13.8913 11.3002 11.8995 11.4479 11.5047L11.4488 11.5024C11.5045 11.3535 11.5969 11.0243 11.6742 10.6811L7.18079 9.76594C7.08967 10.1887 7.098 10.5886 7.09039 10.6684C3.95265 9.76594 2.95447 6.65571 3.05165 4.81595C3.13129 4.82555 3.52017 4.91892 3.95265 4.92004L4.01652 0.334848C3.66472 0.337199 3.32341 0.357297 3.16602 0.379973Z" fill="#9E1B32"/>
</svg>
